<svg xmlns="http://www.w3.org/2000/svg" width="420" height="420" viewBox="0 0 420 420">
  <g fill="none" fill-rule="evenodd">
    <circle cx="210" cy="210" r="210" fill="#6074C8"/>
    <path fill="#89B4A8" d="M159,260.95544 C140.103395,245.837316 128,222.582108 128,196.5 C128,150.936508 164.936508,114 210.5,114 C256.063492,114 293,150.936508 293,196.5 C293,223.039324 280.468544,246.65177 261,261.742967 L261,315 C261,331.568542 247.568542,345 231,345 L189,345 C172.431458,345 159,331.568542 159,315 L159,260.95544 Z"/>
    <path fill="#6074C8" d="M199.533592,187.256182 C195.849769,184.230082 193.5,179.63945 193.5,174.5 C193.5,165.387302 200.887302,158 210,158 C219.112698,158 226.5,165.387302 226.5,174.5 C226.5,179.242459 224.499222,183.517611 221.295719,186.527402 L225.337091,209.620957 C226.098716,213.973096 223.188029,218.11862 218.83589,218.880244 C218.380533,218.959931 217.919125,219 217.456848,219 L203.5,219 C199.081722,219 195.5,215.418278 195.5,211 C195.5,210.537722 195.540069,210.076315 195.619756,209.620957 L199.533592,187.256182 Z"/>
    <path fill="#1A2237" d="M176.369913,169 L212,169 L212,179 L176.369913,179 C174.149699,187.626136 166.319197,194 157,194 C145.954305,194 137,185.045695 137,174 C137,162.954305 145.954305,154 157,154 C166.319197,154 174.149699,160.373864 176.369913,169 Z M157,186 C163.627417,186 169,180.627417 169,174 C169,167.372583 163.627417,162 157,162 C150.372583,162 145,167.372583 145,174 C145,180.627417 150.372583,186 157,186 Z"/>
    <path fill="#4B5DAE" d="M159,284 L261,284 L261,319 C261,335.568542 247.568542,349 231,349 L189,349 C172.431458,349 159,335.568542 159,319 L159,284 Z"/>
    <path stroke="#1A2237" stroke-linecap="round" stroke-linejoin="round" stroke-width="15" d="M156.5 307.5L266.105984 293M159.5 340.5L269.105984 326"/>
    <circle cx="120" cy="92" r="18" fill="#89B4A8"/>
    <circle cx="312" cy="91" r="18" fill="#89B4A8"/>
    <circle cx="216" cy="53" r="18" fill="#89B4A8"/>
    <circle cx="79" cy="193" r="18" fill="#89B4A8"/>
    <circle cx="341" cy="192" r="18" fill="#89B4A8"/>
    <circle cx="120" cy="283" r="18" fill="#89B4A8"/>
    <circle cx="312" cy="282" r="18" fill="#89B4A8"/>
  </g>
</svg>
