<svg xmlns="http://www.w3.org/2000/svg" width="1440" height="879" viewBox="0 0 1440 879">
  <g fill="none" fill-rule="evenodd" transform="translate(-38)">
    <polygon fill="#4B5DAE" points="38 179.944 1478 0 1478 680.056 38 860"/>
    <path fill="#6074C8" d="M719.379589 498.864459L1472.37959 404.702825C1475.11967 404.360181 1477.61872 406.30369 1477.96136 409.043773 1477.98709 409.249575 1478 409.456779 1478 409.664185L1478 760.174181C1478 762.695706 1476.12245 764.822664 1473.62041 765.135541L720.620411 859.297175C717.880328 859.639819 715.381284 857.69631 715.03864 854.956227 715.012905 854.750425 715 854.543221 715 854.335815L715 503.825819C715 501.304294 716.87755 499.177336 719.379589 498.864459zM982.379222 62.0139502L1472.37922.703293094C1475.11928.360446661 1477.61847 2.30377054 1477.96131 5.04382847 1477.98708 5.24975123 1478 5.45707839 1478 5.66460685L1478 232.024736C1478 234.54612 1476.12265 236.673006 1473.62078 236.98605L983.620778 298.296707C980.88072 298.639553 978.381533 296.696229 978.038686 293.956172 978.01292 293.750249 978 293.542922 978 293.335393L978 66.975264C978 64.4538798 979.877346 62.3269944 982.379222 62.0139502z"/>
    <path fill="#89B4A8" d="M4.37971604,602.927249 L587.379716,530.039087 C590.119808,529.696514 592.618802,531.640087 592.961376,534.380179 C592.9871,534.585939 593,534.7931 593,535.000463 L593,805.111375 C593,807.632949 591.122379,809.759932 588.620284,810.072751 L5.62028396,882.960913 C2.88019188,883.303486 0.381197776,881.359913 0.0386244037,878.619821 C0.0128997134,878.414061 1.53946927e-14,878.2069 1.77635684e-14,877.999537 L0,607.888625 C-3.08803752e-16,605.367051 1.8776209,603.240068 4.37971604,602.927249 Z"/>
  </g>
</svg>
