<svg xmlns="http://www.w3.org/2000/svg" width="1920" height="1080" viewBox="0 0 1920 1080">
  <g fill="none" fill-rule="evenodd" transform="translate(0 -1)">
    <polygon fill="#4B5DAE" points="0 180.944 1920 1 1920 681.056 0 861"/>
    <path fill="#89B4A8" d="M1303.53278,58.8797197 L1923,0.74000001 L1923,299 L1304.46688,357.009766 C1301.71752,357.267618 1299.2797,355.247852 1299.02185,352.498493 C1299.00729,352.343292 1299,352.187494 1299,352.031612 L1299,63.8578425 C1299,61.2774245 1300.96365,59.1208436 1303.53278,58.8797197 Z"/>
    <path fill="#6074C8" d="M4.53311865 622.09734L618.533119 564.512717C621.282477 564.254866 623.720303 566.274631 623.978154 569.02399 623.99271 569.179192 624 569.334989 624 569.490872L624 858.446989C624 861.027537 622.036154 863.184181 619.466881 863.425143L5.46688135 921.009766C2.71752256 921.267618.27969699 919.247852.0218455421 916.498493.00728980985 916.343292-9.75087251e-15 916.187494-9.76996262e-15 916.031612L8.8817842e-16 627.075495C5.72152459e-16 624.494947 1.96384554 622.338302 4.53311865 622.09734zM1164.49136 463.727084L1914.49136 387.03268C1917.23845 386.751764 1919.69314 388.750999 1919.97406 391.498097 1919.99134 391.667094 1920 391.836862 1920 392.006741L1920 779.022189C1920 781.586666 1918.05982 783.735369 1915.50864 783.99625L1165.50864 860.690654C1162.76155 860.97157 1160.30686 858.972334 1160.02594 856.225236 1160.00866 856.056239 1160 855.886471 1160 855.716593L1160 468.701145C1160 466.136667 1161.94018 463.987965 1164.49136 463.727084z"/>
  </g>
</svg>
