<?xml version="1.0" encoding="UTF-8"?>
<svg width="134px" height="126px" viewBox="0 0 134 126" version="1.1" xmlns="http://www.w3.org/2000/svg" xmlns:xlink="http://www.w3.org/1999/xlink">
    <!-- Generator: Sketch 50.2 (55047) - http://www.bohemiancoding.com/sketch -->
    <title>bookmark</title>
    <desc>Created with Sketch.</desc>
    <defs></defs>
    <g id="Page-1" stroke="none" stroke-width="1" fill="none" fill-rule="evenodd">
        <g id="Home" transform="translate(-541.000000, -1723.000000)">
            <g id="Impression" transform="translate(149.000000, 1525.000000)">
                <g id="bookmark" transform="translate(395.000000, 201.000000)">
                    <g id="image">
                        <g>
                            <path d="M2.01462313e-09,73.3334713 C2.58025969e-09,61.4869734 3.67101909e-09,38.642483 5.28690132e-09,4.8 C5.41345448e-09,2.1490332 2.29230209,-1.18643584e-10 5.12000001,0 C37.3055437,1.35067509e-09 61.4447016,2.36368141e-09 77.5374734,0 M95.2609119,3.78278742e-09 C100.469167,4.00135325e-09 109.675529,4.38770076e-09 122.88,4.94182996e-09 C125.707698,5.06049628e-09 128,2.14903321 128,4.8 L128,115.2 C128,117.850967 125.707698,120 122.88,120 L5.12,120 C2.29230208,120 -1.26577409e-10,117.850967 0,115.2 C5.09295898e-10,104.533482 8.91267821e-10,96.5335927 1.14591577e-09,91.2003334" id="Rectangle-path" stroke="#4B5DAE" stroke-width="6" stroke-linecap="round" stroke-linejoin="round"></path>
                            <polyline id="Shape" stroke="#89B4A8" stroke-width="6" stroke-linecap="round" stroke-linejoin="round" points="111.131783 52.3842741 111.131783 75.3044938 95.7519327 62.1899171 90.8437521 66.3751825 84.2933811 71.9607637 80.372093 75.3044938 80.372093 22 111.131783 22 111.131783 36.6929107"></polyline>
                            <path d="M128,22 L0,22" id="Shape" stroke="#4B5DAE" stroke-width="6"></path>
                            <path d="M117.085271,11 L48.620155,11" id="Shape" stroke="#4B5DAE" stroke-width="6" stroke-linecap="round"></path>
                            <path d="M14.8837209,11 L9.92248062,11" id="Shape" stroke="#4B5DAE" stroke-width="6" stroke-linecap="round"></path>
                            <path d="M26.7906977,11 L21.8294574,11" id="Shape" stroke="#4B5DAE" stroke-width="6" stroke-linecap="round"></path>
                            <path d="M38.6976744,11 L33.7364341,11" id="Shape" stroke="#4B5DAE" stroke-width="6" stroke-linecap="round"></path>
                        </g>
                    </g>
                </g>
            </g>
        </g>
    </g>
</svg>