<?xml version="1.0" encoding="UTF-8"?>
<svg width="124px" height="105px" viewBox="0 0 124 105" version="1.1" xmlns="http://www.w3.org/2000/svg" xmlns:xlink="http://www.w3.org/1999/xlink">
    <!-- Generator: Sketch 50.2 (55047) - http://www.bohemiancoding.com/sketch -->
    <title>checkmark</title>
    <desc>Created with Sketch.</desc>
    <defs></defs>
    <g id="Page-1" stroke="none" stroke-width="1" fill="none" fill-rule="evenodd" stroke-linecap="round" stroke-linejoin="round">
        <g id="Home" transform="translate(-938.000000, -1745.000000)" fill-rule="nonzero" stroke="#4B5DAE" stroke-width="6">
            <g id="Impression" transform="translate(149.000000, 1525.000000)">
                <g id="check" transform="translate(792.000000, 223.000000)">
                    <g id="checkmark">
                        <path d="M5.78347348,48.9893858 C5.07062911,49.7000122 4.00136257,50.7659518 2.57567384,52.1872046 C-0.19189128,54.9528444 -0.19189128,59.4529154 2.57567384,62.2171654 L37.3834491,96.9224695 C40.1621625,99.6922785 44.6744363,99.6922785 47.4406079,96.9238592 C71.6865206,72.7440118 89.870955,54.6091262 101.993911,42.5192025 M110.851995,33.6852554 C111.792506,32.7473074 113.315222,31.2287396 115.420146,29.1295521 C118.193285,26.359743 118.193285,21.8638413 115.420146,19.0926425 L98.353494,2.07353491 C97.0087305,0.733797876 95.2319704,0 93.3311855,0 C91.4304006,0 89.6397051,0.733797876 88.2963351,2.07353491 C71.4650318,18.8623797 60.3080837,29.9911834 54.8254908,35.4599459 C53.1727748,37.1084928 51.6385163,38.638881 50.2227154,40.0511105 C48.4887104,41.7807413 45.8877029,44.3751875 42.4196929,47.8344491 L29.706452,35.1639278 C28.3700497,33.8269703 26.5821413,33.0848338 24.6827499,33.0848338 C22.781965,33.0848338 20.9926631,33.8269703 19.646506,35.1694868 C16.0667728,38.7380821 13.5467063,41.2503076 12.0863066,42.7061634" id="Shape"></path>
                    </g>
                </g>
            </g>
        </g>
    </g>
</svg>