<?xml version="1.0" encoding="UTF-8"?>
<svg width="79px" height="143px" viewBox="0 0 79 143" version="1.1" xmlns="http://www.w3.org/2000/svg" xmlns:xlink="http://www.w3.org/1999/xlink">
    <!-- Generator: Sketch 50.2 (55047) - http://www.bohemiancoding.com/sketch -->
    <title>star</title>
    <desc>Created with Sketch.</desc>
    <defs></defs>
    <g id="Page-1" stroke="none" stroke-width="1" fill="none" fill-rule="evenodd">
        <g id="Home" transform="translate(-149.000000, -1703.000000)">
            <g id="Impression" transform="translate(149.000000, 1525.000000)">
                <g id="star" transform="translate(0.000000, 178.000000)">
                    <g id="image">
                        <g>
                            <path d="M77.3489,27.6514333 C76.56522,25.2299667 74.5128,23.5759333 71.99112,23.3360111 L52.86522,21.5215 L45.23856,3.7895 C44.2321,1.45224444 42.03432,0 39.5,0 C36.96568,0 34.7679,1.45224444 33.76144,3.79108889 L26.13636,21.5230889 L7.01046,23.3376 C4.48878,23.5759333 2.43478,25.2299667 1.65268,27.6530222 C0.87058,30.0760778 1.5642,32.6278333 3.46494,34.3136444 L17.87928,47.0851333 L13.6828,65.9373 C13.26568,67.8121889 13.70492,69.7411 14.88834,71.2251222 C16.77328,73.5957444 20.34408,74.2805556 22.96688,72.7202667 L39.5,62.8834556 L56.03312,72.7186778 C57.0064,73.2986222 58.10766,73.6052778 59.21524,73.6052778 C61.09386,73.6052778 62.92508,72.7139111 64.11166,71.2251222 C65.29508,69.7379222 65.73432,67.8121889 65.3172,65.9388889 L61.1223,47.0851333 L75.53664,34.3120556 C77.43738,32.6262444 78.131,30.0744889 77.3489,27.6514333 Z M55.54174,43.5593889 C54.67748,44.3268222 54.29512,45.5073667 54.54792,46.6386556 L59.15994,67.1957 L41.11002,56.4548111 C40.11778,55.8653333 38.8838,55.8653333 37.89156,56.4548111 L19.85112,67.3259889 L24.45366,46.6370667 C24.70646,45.5057778 24.3241,44.3268222 23.45984,43.5578 L7.60454,29.6645556 L28.59326,27.6736778 C29.74192,27.5656333 30.7389,26.8363333 31.1971,25.7717778 L39.4368,6.31424444 L47.80448,25.7717778 C48.26268,26.8363333 49.25966,27.5656333 50.40832,27.6736778 L71.35754,29.5438 L55.54174,43.5593889 Z" id="Shape" fill="#89B4A8" fill-rule="nonzero"></path>
                            <path d="M8.38032,96.6282778 L8.65208,96.6282778 L8.65208,139.822222 C8.65208,141.576356 10.06776,143 11.81208,143 C13.5564,143 14.97208,141.576356 14.97208,139.822222 L14.97208,96.6282778 L49.96592,96.6282778 C51.71024,96.6282778 53.12592,95.2046333 53.12592,93.4505 C53.12592,91.6963667 51.71024,90.2727222 49.96592,90.2727222 L8.38032,90.2727222 C7.5682,90.2727222 6.90776,89.6085667 6.90776,88.7918778 L6.90776,83.7265 C6.90776,82.9098111 7.5682,82.2456556 8.38032,82.2456556 L70.61968,82.2456556 C71.4318,82.2456556 72.09224,82.9098111 72.09224,83.7265 L72.09224,88.7918778 C72.09224,89.6085667 71.4318,90.2727222 70.61968,90.2727222 L58.6575,90.2727222 C56.91318,90.2727222 55.4975,91.6963667 55.4975,93.4505 C55.4975,95.2046333 56.91318,96.6282778 58.6575,96.6282778 L64.02634,96.6282778 L64.02634,139.822222 C64.02634,141.576356 65.44202,143 67.18634,143 C68.93066,143 70.34634,141.576356 70.34634,139.822222 L70.34634,96.6282778 L70.6181,96.6282778 C74.91412,96.6282778 78.41066,93.1136556 78.41066,88.7918778 L78.41066,83.7265 C78.41066,79.4047222 74.9157,75.8901 70.6181,75.8901 L8.38032,75.8901 C4.0843,75.8901 0.58776,79.4047222 0.58776,83.7265 L0.58776,88.7918778 C0.58934,93.1152444 4.0843,96.6282778 8.38032,96.6282778 Z" id="Shape" fill="#4B5DAE" fill-rule="nonzero"></path>
                            <path d="M22.95108,121.0209 C21.20676,121.0209 19.79108,122.444544 19.79108,124.198678 L19.79108,139.822222 C19.79108,141.576356 21.20676,143 22.95108,143 L33.55604,143 C35.30036,143 36.71604,141.576356 36.71604,139.822222 L36.71604,111.786278 C36.71604,107.094289 32.9193,103.277778 28.25356,103.277778 C23.58782,103.277778 19.79108,107.094289 19.79108,111.786278 L19.79108,116.981944 C19.79108,118.736078 21.20676,120.159722 22.95108,120.159722 C24.6954,120.159722 26.11108,118.736078 26.11108,116.981944 L26.11108,111.786278 C26.11108,110.599378 27.07172,109.633333 28.25356,109.633333 C29.4354,109.633333 30.39604,110.599378 30.39604,111.786278 L30.39604,136.644444 L26.11108,136.644444 L26.11108,124.198678 C26.11108,122.444544 24.6954,121.0209 22.95108,121.0209 Z" id="Shape" fill="#4B5DAE" fill-rule="nonzero"></path>
                            <path d="M45.44396,131.281944 C43.69964,131.281944 42.28396,132.705589 42.28396,134.459722 L42.28396,139.822222 C42.28396,141.576356 43.69964,143 45.44396,143 L56.04892,143 C57.79324,143 59.20892,141.576356 59.20892,139.822222 L59.20892,111.786278 C59.20892,107.094289 55.41218,103.277778 50.74644,103.277778 C46.0807,103.277778 42.28396,107.094289 42.28396,111.786278 L42.28396,127.309722 C42.28396,129.063856 43.69964,130.4875 45.44396,130.4875 C47.18828,130.4875 48.60396,129.063856 48.60396,127.309722 L48.60396,111.786278 C48.60396,110.599378 49.5646,109.633333 50.74644,109.633333 C51.92828,109.633333 52.88892,110.599378 52.88892,111.786278 L52.88892,136.644444 L48.60396,136.644444 L48.60396,134.459722 C48.60396,132.705589 47.18986,131.281944 45.44396,131.281944 Z" id="Shape" fill="#4B5DAE" fill-rule="nonzero"></path>
                        </g>
                    </g>
                </g>
            </g>
        </g>
    </g>
</svg>