<svg xmlns="http://www.w3.org/2000/svg" width="601" height="557" viewBox="0 0 601 557">
  <g fill="#4A5BB0" fill-rule="evenodd">
    <path d="M0,0 L601,0 L601,557 L0,557 L0,0 Z M37,37 L37,520 L564,520 L564,37 L37,37 Z"/>
    <polygon points="192.197 137.032 235.198 137.032 263.061 194.272 241.859 238.25"/>
    <path d="M116.444247,136.989375 L159.077365,136.989375 L281.651317,386.346238 L403.903659,386.346238 C419.636249,385.020448 431.522007,377.611308 439.560934,364.118818 C442.752456,358.762185 449.911897,334.945542 436.797425,318.714157 C427.751438,307.518212 416.786849,301.423484 403.903659,300.429972 L267.43054,300.429972 L286.435473,261.667807 L405.386986,261.667807 C412.738973,260.627699 419.408583,258.344587 425.395817,254.81847 C434.376668,249.529295 439.405857,240.570395 441.913678,233.726242 C448.239458,216.462406 441.948402,198.540576 433.543355,189.934857 C425.057988,181.2469 415.672532,176.468144 405.386986,175.59859 L321.751983,175.59859 L253.002035,314.937872 L231.397365,271.888969 L297.240214,136.989375 L405.386986,136.989375 C429.081399,138.968035 447.957986,147.90531 462.016747,163.801201 C476.075508,179.697092 483.104888,198.168423 483.104888,219.215195 C482.251456,235.284614 479.864921,247.152372 475.945283,254.81847 C472.025645,262.484569 464.857947,271.26887 454.442187,281.171373 C464.005491,289.92403 471.17319,299.510558 475.945283,309.930957 C480.717377,320.351356 483.103912,331.627565 483.104888,343.759583 C483.104888,369.193903 473.130082,390.207407 453.18047,406.800094 C439.274126,418.366415 423.342965,424.405008 405.386986,424.915873 L257.275097,424.915873 L116.444247,136.989375 Z"/>
    <polygon points="203.772 327.844 225.184 371.233 191.301 440.702 36.121 125.114 36.121 36.26 190.918 353.171"/>
  </g>
</svg>
